<svg width="220" height="46" fill="none" xmlns="http://www.w3.org/2000/svg"><path d="M55.395 45.472h-1.397v-3.018h-4.144v3.018h-1.397v-6.918h1.397v2.832h4.144v-2.832h1.397v6.918zm8.857 0h-1.588l-.586-1.327h-3.654l-.585 1.327h-1.588l3.129-6.918h1.743l3.129 6.918zm-2.568-2.395l-1.433-3.299-1.433 3.299h2.866zm12.989 2.395h-1.72l-2.674-2.914-.693.705v2.21H68.19v-6.919h1.397v3.299l3.117-3.299h1.732l-3.237 3.267 3.475 3.651zm6.977-.882c-.763.671-1.739 1.007-2.925 1.007-1.186 0-2.161-.336-2.926-1.006-.764-.678-1.146-1.535-1.146-2.572 0-1.038.382-1.892 1.146-2.562.765-.678 1.74-1.017 2.926-1.017 1.186 0 2.162.34 2.926 1.017.764.67 1.146 1.524 1.146 2.562 0 1.037-.382 1.894-1.146 2.572zm-2.925-.072c.788 0 1.425-.235 1.91-.705.486-.477.73-1.075.73-1.794 0-.726-.244-1.325-.73-1.795-.485-.47-1.122-.705-1.91-.705-.796 0-1.437.235-1.922.705-.478.47-.717 1.069-.717 1.795s.239 1.324.716 1.794c.486.47 1.127.705 1.923.705zm4.485 1.079v-1.079c.46 0 .807-.156 1.038-.467.231-.318.41-.964.537-1.94l.466-3.556h5.41v6.917h-1.397v-5.85h-2.759l-.334 2.573c-.096.712-.231 1.3-.406 1.763-.168.463-.386.813-.657 1.048a2.172 2.172 0 01-.836.466c-.287.083-.64.125-1.063.125zm15.782-1.007c-.764.671-1.74 1.007-2.926 1.007-1.186 0-2.161-.336-2.925-1.006-.765-.678-1.147-1.535-1.147-2.572 0-1.038.382-1.892 1.147-2.562.764-.678 1.74-1.017 2.925-1.017 1.187 0 2.162.34 2.926 1.017.764.67 1.147 1.524 1.147 2.562 0 1.037-.383 1.894-1.147 2.572zm-2.926-.072c.789 0 1.425-.235 1.911-.705.486-.477.728-1.075.728-1.794 0-.726-.242-1.325-.728-1.795s-1.122-.705-1.91-.705c-.797 0-1.438.235-1.923.705-.478.47-.717 1.069-.717 1.795s.24 1.324.717 1.794c.485.47 1.126.705 1.922.705zm13.693.954h-1.397v-5.134l-2.448 5.134h-.597l-2.436-5.134v5.134h-1.397v-6.918h1.97l2.162 4.554 2.173-4.553h1.97v6.917zm7.153 0h-5.457v-6.918h5.457v1.069h-4.06v1.794h3.977v1.068h-3.977v1.919h4.06v1.068zm8.373 0h-1.397v-3.018h-4.144v3.018h-1.397v-6.918h1.397v2.832h4.144v-2.832h1.397v6.918zm5.513.125c-1.194 0-2.189-.332-2.985-.996-.796-.67-1.195-1.532-1.195-2.582 0-1.051.399-1.909 1.195-2.573.796-.67 1.791-1.006 2.985-1.006 1.385 0 2.452.519 3.201 1.556l-1.195.53a2.182 2.182 0 00-.848-.727 2.468 2.468 0 00-1.158-.28c-.788 0-1.445.235-1.97.705-.518.47-.777 1.069-.777 1.795s.259 1.324.777 1.794c.525.47 1.182.705 1.97.705.422 0 .812-.093 1.17-.28.359-.187.637-.429.836-.726l1.195.529c-.765 1.037-1.832 1.556-3.201 1.556zm10.803-.125h-1.719l-2.675-2.914-.693.705v2.21h-1.397v-6.919h1.397v3.299l3.117-3.299h1.731l-3.236 3.267 3.475 3.651zm6.978-.882c-.765.671-1.74 1.007-2.926 1.007-1.186 0-2.162-.336-2.926-1.006-.764-.678-1.146-1.535-1.146-2.572 0-1.038.382-1.892 1.146-2.562.764-.678 1.74-1.017 2.926-1.017 1.186 0 2.161.34 2.926 1.017.764.67 1.146 1.524 1.146 2.562 0 1.037-.382 1.894-1.146 2.572zm-2.926-.072c.788 0 1.425-.235 1.911-.705.485-.477.728-1.075.728-1.794 0-.726-.243-1.325-.728-1.795-.486-.47-1.123-.705-1.911-.705-.796 0-1.437.235-1.923.705-.477.47-.716 1.069-.716 1.795s.239 1.324.716 1.794c.486.47 1.127.705 1.923.705zm6.767.954h-1.35v-6.918h1.397v4.802l4.073-4.802h1.433v6.918h-1.398v-4.937l-4.155 4.937zm4.191-8.183c-.517.609-1.214.913-2.09.913-.867 0-1.568-.304-2.101-.913l.573-.415c.382.457.892.685 1.528.685.637 0 1.143-.228 1.517-.685l.573.415zm-85.015-5.261h-5v-5.675H54.013v5.66h-5.158l-.397-9.94h1.635c.857-.571 1.544-1.549 2.063-2.933.529-1.396.904-3.393 1.127-5.993l.714-9.877h15.727v18.802h2.46l-.587 9.956zm-15.204-9.956h7.777V7.567h-4.92l-.429 5.77c-.317 3.742-1.127 6.653-2.428 8.735zm36.898-6.785c0 2.251-.417 4.244-1.253 5.977-.836 1.733-2.026 3.07-3.57 4.01-1.535.93-3.286 1.396-5.254 1.396-1.968 0-3.714-.45-5.237-1.348-1.524-.909-2.714-2.203-3.571-3.884-.846-1.68-1.29-3.609-1.333-5.786v-1.3c0-2.262.412-4.254 1.238-5.977.836-1.733 2.026-3.07 3.57-4.01 1.556-.941 3.323-1.412 5.301-1.412 1.958 0 3.703.465 5.237 1.395 1.535.93 2.725 2.257 3.571 3.98.857 1.712 1.291 3.678 1.302 5.897v1.062zm-5.665-.967c0-2.293-.386-4.032-1.159-5.216-.761-1.194-1.856-1.791-3.285-1.791-2.793 0-4.269 2.093-4.428 6.278l-.015 1.696c0 2.262.375 4 1.126 5.216.752 1.215 1.868 1.823 3.349 1.823 1.407 0 2.492-.597 3.253-1.791.762-1.195 1.148-2.912 1.159-5.153V14.32zm15.854-11.05l5.158 16.06 5.142-16.06h7.332v23.083h-5.586v-5.39l.54-11.034-5.587 16.424h-3.682l-5.602-16.44.54 11.05v5.39h-5.57V3.27h7.315zm44.897 4.297h-10.014v3.646h2.873c1.83 0 3.449.312 4.856.935 1.407.624 2.486 1.506 3.238 2.648.761 1.13 1.142 2.43 1.142 3.9 0 2.272-.846 4.116-2.539 5.532-1.682 1.417-3.946 2.125-6.792 2.125h-8.38V3.27h15.616v4.297zm-10.014 7.926v6.58h2.857c1.132 0 2.026-.318 2.682-.952.667-.634 1-1.453 1-2.457 0-.951-.328-1.718-.984-2.299-.656-.581-1.566-.872-2.73-.872h-2.825zm20.283-4.28h2.872c1.83 0 3.449.312 4.856.935 1.408.624 2.487 1.506 3.238 2.648.762 1.13 1.143 2.43 1.143 3.9 0 2.272-.847 4.116-2.54 5.532-1.682 1.417-3.946 2.125-6.792 2.125h-8.364V3.27h5.587v7.943zm19.345 15.14h-5.554V3.27h5.554v23.083zm-19.345-10.86v6.58h2.856c1.132 0 2.026-.318 2.682-.952.667-.634 1-1.453 1-2.457 0-.951-.328-1.718-.984-2.299-.656-.581-1.566-.872-2.73-.872h-2.824zm40.437-7.926h-6.935v18.786h-5.571V7.567h-6.808V3.27h19.314v4.297zm13.585 14.473h-7.634l-1.333 4.313h-5.951l8.475-23.083h5.237l8.538 23.083h-5.983l-1.349-4.312zm-6.3-4.296h4.967l-2.492-8.005-2.475 8.005z" fill="#fff"/><path fill="#D1502B" d="M0 33.963h35.981v11.99H0z"/><path fill-rule="evenodd" clip-rule="evenodd" d="M.005 13.992L17.982.046v.017l.01-.01v.01l17.985 13.934.003 14.735-17.987-13.935v-.011l-.024.009L0 28.735l.005-14.742z" fill="#F2C731"/></svg>