<svg width="30" height="29" fill="none" xmlns="http://www.w3.org/2000/svg"><path fill-rule="evenodd" clip-rule="evenodd" d="M15 0C6.716 0 0 6.492 0 14.5S6.716 29 15 29c8.284 0 15-6.492 15-14.5S23.284 0 15 0zm-.418 12.287l-.031-.501c-.095-1.3.734-2.488 2.046-2.95.482-.163 1.3-.183 1.836-.04.21.061.608.266.892.45l.514.338.566-.174c.315-.092.735-.246.924-.348.178-.092.335-.143.335-.113 0 .175-.388.768-.713 1.096-.44.46-.315.502.577.195.535-.175.546-.175.44.02-.062.103-.387.46-.734.789-.587.563-.619.624-.619 1.095 0 .727-.356 2.243-.713 3.072-.661 1.556-2.078 3.164-3.494 3.973-1.994 1.137-4.648 1.423-6.883.758-.745-.226-2.025-.8-2.025-.901 0-.031.388-.072.86-.082a6.062 6.062 0 002.812-.758l.567-.328-.65-.215c-.924-.307-1.753-1.014-1.963-1.679-.063-.215-.042-.225.546-.225l.608-.01-.514-.236c-.608-.297-1.164-.799-1.437-1.31-.2-.37-.451-1.301-.378-1.373.021-.03.242.03.493.113.724.256.819.194.399-.236-.787-.778-1.028-1.935-.65-3.03l.178-.492.692.666c1.417 1.34 3.085 2.14 4.995 2.375l.524.061z" fill="#fff"/></svg>